<svg width="32" height="32" viewBox="-3 3 28 28" fill="none" xmlns="http://www.w3.org/2000/svg">
<path d="M0.0732826 29V19.4951C1.4441 20.3188 2.86904 20.736 3.41016 20.8416H12.8797C14.6112 21.6654 13.9619 23.1386 12.8797 23.6139H3.41016V26.2277H13.6011C19.4801 23.6139 16.3236 18.8614 13.6011 18.4654H3.95127C-3.08317 15.6931 0.794803 10.703 3.95127 10.4653H12.8797C12.8797 10.4653 13.9619 10.8614 13.9619 11.8911C13.9619 13.0792 12.8797 13.2376 12.8797 13.2376H4.49238C4.49238 13.2376 3.41015 13.4752 3.41016 14.4257C3.41017 15.3762 4.49238 15.6931 4.49238 15.6931H13.6011C24.9645 18.8614 18.9221 29 12.8797 29H0.0732826Z" fill="#1890FF"/>
<path d="M13.059 7.85149C16.6664 8.40594 17.3879 12.0495 16.2155 13.7129L18.7407 15.0594C22.2038 8.59604 16.6364 5.66007 13.4198 5L0.0722656 5.07921V9.19802C1.65953 8.18416 3.07846 7.87789 3.58951 7.85149H13.059Z" fill="#1890FF"/>
</svg>
